<?xml version="1.0" encoding="UTF-8" standalone="no"?>
<svg
   xmlns:dc="http://purl.org/dc/elements/1.1/"
   xmlns:cc="http://creativecommons.org/ns#"
   xmlns:rdf="http://www.w3.org/1999/02/22-rdf-syntax-ns#"
   xmlns:svg="http://www.w3.org/2000/svg"
   xmlns="http://www.w3.org/2000/svg"
   xmlns:sodipodi="http://sodipodi.sourceforge.net/DTD/sodipodi-0.dtd"
   xmlns:inkscape="http://www.inkscape.org/namespaces/inkscape"
   viewBox="0 0 416.00003 327.24106"
   data-svgdocument=""
   id="_NSeckdEUn8CgCMoXFdWiy"
   class="fl-svgdocument"
   x="0"
   y="0"
   style="overflow:hidden"
   version="1.1"
   sodipodi:docname="logo.svg"
   width="416.00003"
   height="327.24106"
   inkscape:version="0.92.4 (5da689c313, 2019-01-14)">
  <metadata
     id="metadata26">
    <rdf:RDF>
      <cc:Work
         rdf:about="">
        <dc:format>image/svg+xml</dc:format>
        <dc:type
           rdf:resource="http://purl.org/dc/dcmitype/StillImage" />
        <dc:title></dc:title>
      </cc:Work>
    </rdf:RDF>
  </metadata>
  <sodipodi:namedview
     pagecolor="#ffffff"
     bordercolor="#666666"
     borderopacity="1"
     objecttolerance="10"
     gridtolerance="10"
     guidetolerance="10"
     inkscape:pageopacity="0"
     inkscape:pageshadow="2"
     inkscape:window-width="1920"
     inkscape:window-height="1017"
     id="namedview24"
     showgrid="false"
     inkscape:snap-page="false"
     fit-margin-top="0"
     fit-margin-left="0"
     fit-margin-right="0"
     fit-margin-bottom="0"
     inkscape:zoom="1.39"
     inkscape:cx="432.77699"
     inkscape:cy="272.34706"
     inkscape:window-x="-8"
     inkscape:window-y="-8"
     inkscape:window-maximized="1"
     inkscape:current-layer="_NSeckdEUn8CgCMoXFdWiy" />
  <defs
     id="_ad9sB9fXefCUiIEZm7FuM"
     transform="matrix(1.0758732578051726, 0, 0, 1.0758732578051726, -18.986691966399555, -3.9908064334748925)" />
  <polygon
     id="_BgvvCxrCzQJCrTAygk4yN"
     points="0.391,160.359 176.379,160.359 88.385,8 "
     transform="matrix(0.59693205,0,0,0.85065384,197.62305,74.459505)"
     style="fill:#4c96d7" />
  <polygon
     id="_yKsSTN6EFJpBquNp52DAI"
     points="0.391,160.359 176.379,160.359 88.385,8 "
     transform="matrix(0.16880195,0,0,0.43311317,228.61289,145.28491)"
     style="fill:#cf1717" />
  <polygon
     id="_i97fEVs74BU2Kppb6ryfF"
     points="0.391,160.359 176.379,160.359 88.385,8 "
     transform="matrix(0.51761792,0,0,0.70801317,68.471127,71.760745)"
     style="fill:#168200" />
  <circle
     id="__piAvsaxjazsP-GwRz68Y"
     cx="361.92801"
     cy="51.043224"
     r="19.268816"
     style="fill:#f7e031;stroke-width:0.21801002" />
  <path
     text="MyPassion"
     font-size="100"
     letter-spacing="0"
     side="left"
     offset="0.5"
     dx="0"
     dy="0"
     space="preserve"
     href=""
     font-scale="contain"
     x="0"
     y="0"
     data-fl-textpath=""
     id="_V_DCe4xnSPWyWlFqeZAhl"
     d="m 47.974901,232.12453 v 71.55079 H 43.706852 L 39.245725,249.49143 31.004326,298.7569 H 21.533323 L 14.338612,250.62957 8.038159,303.12657 0,302.62863 6.391912,232.31761 h 13.952454 l 6.595152,50.70849 7.194711,-50.90157 z m 41.040116,20.19194 h 7.48941 q -0.2947,3.47541 -0.59956,7.51989 -0.2947,4.04449 -0.51826,8.26173 -0.22357,4.21724 -0.41665,8.48528 -0.20324,4.26805 -0.3455,8.18043 v 0 q -0.40649,9.22712 -0.65037,18.60666 v 0 q -0.24389,5.16231 -1.56496,9.53198 -1.3109,4.36967 -3.77011,7.54022 -2.4592,3.18071 -6.07688,4.98955 -3.61768,1.80884 -8.48529,1.80884 v 0 q -3.1299,-0.10162 -6.10738,-0.79264 v 0 q -1.29057,-0.2947 -2.6218,-0.77231 -1.34138,-0.46746 -2.66245,-1.13815 -1.3109,-0.67069 -2.53034,-1.58527 -1.20928,-0.92475 -2.15435,-2.1137 v 0 l 3.87173,-5.60944 q 1.63609,1.89014 3.52622,2.92666 1.87998,1.04669 3.59736,1.54463 1.70722,0.49794 3.0486,0.61988 1.34139,0.12195 1.82917,0.12195 v 0 q 3.23152,0 5.5383,-1.26009 2.30678,-1.27026 3.84124,-3.47542 1.54463,-2.21532 2.43889,-5.26392 0.88409,-3.04861 1.36171,-6.59515 0.46745,-3.54655 0.5894,-7.49958 0.1321,-3.94286 0.1321,-7.95686 v 0 -0.59956 q -1.49381,4.56275 -3.25184,7.71298 -1.75803,3.15022 -3.54655,5.2436 -1.78851,2.08321 -3.47541,3.24168 -1.6869,1.16864 -3.02828,1.71739 -1.34139,0.54874 -2.25597,0.67069 -0.91458,0.12194 -1.11782,0.12194 v 0 q -3.7193,0 -6.24965,-2.06289 -2.53034,-2.05272 -4.07497,-5.92445 -1.53446,-3.87173 -2.20516,-9.43036 -0.67069,-5.55863 -0.67069,-12.5501 v 0 q 0,-5.60943 0.34551,-11.96069 0.35567,-6.35127 0.99588,-13.54598 v 0 l 9.03403,0.69102 q -1.29057,8.79015 -1.85964,15.36497 -0.57924,6.57483 -0.57924,11.48309 v 0 q 0,4.95906 0.4268,8.38367 0.41665,3.4246 1.06702,5.71105 0.6402,2.27629 1.41252,3.54655 0.77231,1.26009 1.46333,1.87997 0.70118,0.61988 1.23977,0.75199 0.54874,0.12194 0.70117,0.12194 v 0 q 1.87998,0 3.59736,-1.7377 1.70722,-1.73771 3.22136,-4.61356 1.51414,-2.87585 2.82504,-6.62564 1.32107,-3.74978 2.4084,-7.81459 1.0975,-4.07497 1.96127,-8.13978 0.86377,-4.06481 1.46333,-7.59103 0.59956,-3.52622 0.94507,-6.17851 0.34551,-2.65229 0.44713,-3.94286 z m 57.808403,3.07909 v 0 q -0.20324,4.16643 -1.64625,7.68249 -1.43284,3.52622 -3.7701,6.40207 -2.32711,2.88602 -5.35539,5.06069 -3.02828,2.18483 -6.37159,3.67865 -3.35346,1.48365 -6.87969,2.22548 -3.51605,0.75199 -6.79839,0.75199 v 0 q -0.58939,0 -1.18895,0 -0.5894,0 -1.23977,-0.10162 v 0 q -0.2947,5.90414 -0.46745,11.73714 -0.17276,5.82283 -0.32519,11.73713 v 0 h -7.4386 q 0.2947,-10.32461 0.51827,-20.56793 0.22356,-10.25348 0.22356,-20.66955 v 0 q 0,-7.54022 -0.15243,-14.9585 -0.15243,-7.41827 -0.39632,-14.95849 v 0 q 2.37791,-0.94507 5.00988,-1.51414 2.63196,-0.57924 5.09117,-0.87394 2.44905,-0.29469 4.53226,-0.36583 2.09338,-0.0813 3.38395,-0.0813 v 0 q 4.70502,0 8.95274,1.29057 4.23757,1.29058 7.41828,4.24773 3.17055,2.94698 5.0302,7.69265 1.86981,4.7355 1.86981,11.5847 z m -30.71979,-17.81402 v 0 q -0.74182,9.52181 -1.29057,18.95217 -0.54875,9.43035 -1.03653,18.85055 v 0 h 0.0915 q 5.457,0 9.2576,-1.48366 3.8006,-1.49382 6.30045,-3.7193 2.51002,-2.23564 3.89206,-4.83712 1.39219,-2.61164 2.06289,-4.88793 0.67069,-2.28646 0.82312,-3.82092 0.14227,-1.54463 0.14227,-1.63609 v 0 q 0,-0.54875 -0.0915,-2.08321 -0.10162,-1.54463 -0.54875,-3.55671 -0.44713,-2.00192 -1.36171,-4.18675 -0.92474,-2.18484 -2.56083,-3.99368 -1.63608,-1.80884 -4.11562,-3.00796 -2.47953,-1.18895 -6.05656,-1.18895 v 0 q -2.47953,0 -5.50782,0.59956 z m 75.56805,38.95102 v 0 q -0.0915,5.00988 -0.2947,9.96895 v 0 q -0.10162,2.13402 -0.20324,4.47129 -0.0915,2.3271 -0.22357,4.68469 -0.12194,2.35759 -0.2947,4.64404 -0.17275,2.27629 -0.32518,4.26805 v 0 l -6.78823,-0.20324 q 0.0915,-1.44301 0.14227,-2.82504 0.0508,-1.3922 0.0508,-2.7844 v 0 q -2.23565,2.38808 -4.71518,3.7193 -2.47953,1.34139 -4.71518,2.04257 v 0 q -2.58115,0.84345 -5.11149,1.08734 v 0 q -0.53859,0.10162 -1.01621,0.10162 -0.46745,0 -1.0162,0 v 0 q -3.47541,0 -6.64596,-0.9654 -3.18071,-0.97555 -5.62976,-2.95714 -2.45921,-1.9816 -3.92254,-4.98956 -1.46333,-2.99779 -1.46333,-7.0626 v 0 q 0,-3.57703 1.41252,-6.72726 1.41252,-3.15023 3.97335,-5.50781 2.55067,-2.35759 6.17851,-3.74979 3.61768,-1.38203 8.03816,-1.48365 v 0 q 0.14227,0 1.68689,0.10162 1.53447,0.0915 3.73963,0.61988 2.21532,0.51826 4.76598,1.63608 2.55067,1.11783 4.73551,3.09942 v 0 q 0,-2.23564 -0.0915,-4.71518 -0.10162,-2.47953 -0.47762,-4.88793 -0.36583,-2.4084 -1.16863,-4.59323 -0.79264,-2.17468 -2.15435,-3.84125 -1.36171,-1.66657 -3.44492,-2.63196 -2.08322,-0.96539 -5.06069,-0.96539 v 0 q -2.33726,0 -4.26805,0.89426 -1.94094,0.89425 -3.4246,2.42872 -1.49382,1.54463 -2.47953,3.64816 -0.99588,2.1137 -1.49382,4.54243 v 0 l -8.33286,-2.68278 q 0.5894,-2.82504 1.70722,-5.00987 1.11782,-2.18484 2.53035,-3.82092 1.42268,-1.63609 3.02828,-2.80472 1.61576,-1.16863 3.20103,-1.96127 v 0 q 3.7193,-1.82916 8.03816,-2.22548 v 0 q 5.95495,0 10.07057,1.77835 4.12578,1.78852 6.67644,5.26393 2.56083,3.47541 3.66849,8.58691 1.11783,5.11149 1.11783,11.80826 z m -7.7333,13.78987 v 0 q 0,-0.98572 0.0406,-1.96127 0.0508,-0.9654 0.0508,-1.85965 v 0 q -2.62181,-2.67262 -5.18263,-4.06481 -2.55067,-1.3922 -4.63389,-2.08322 v 0 q -2.38807,-0.79263 -4.62372,-0.89425 v 0 q -3.06893,0 -5.28425,0.86377 -2.20516,0.87393 -3.61768,2.30678 -1.41252,1.443 -2.08321,3.28233 -0.67069,1.82916 -0.67069,3.82092 v 0 q 0,2.0324 0.74182,3.66849 0.74183,1.63608 2.1137,2.77423 1.36171,1.14831 3.32298,1.76819 1.96127,0.61989 4.39,0.61989 v 0 q 2.37791,-0.20325 4.95906,-1.0975 v 0 q 2.23565,-0.79264 4.93875,-2.44905 2.70309,-1.66657 5.5383,-4.69485 z m 53.43945,-21.53333 -8.93242,-0.29469 q 0.0915,-0.44713 0.0915,-0.92475 0,-0.46745 0,-1.0162 v 0 q 0,-2.53034 -0.71134,-4.7355 -0.72151,-2.20516 -2.04257,-3.87173 -1.3109,-1.65641 -3.19087,-2.63197 -1.89014,-0.96539 -4.1766,-0.96539 v 0 q -2.6218,0 -4.75582,0.6707 -2.13403,0.67069 -3.64817,1.96127 -1.51414,1.29057 -2.35759,3.20103 -0.84344,1.91046 -0.84344,4.44081 v 0 q 0,1.43284 0.7215,2.94698 0.71134,1.51414 2.15435,2.85553 1.44301,1.34139 3.54654,2.38807 2.1137,1.03653 4.93875,1.48366 v 0 q 5.30457,0.89426 8.65804,2.60148 3.35347,1.71738 5.26392,3.8514 1.91046,2.13403 2.60148,4.41032 0.69102,2.28645 0.69102,4.26805 v 0 q 0,1.23976 -0.27437,2.8352 -0.26422,1.58528 -1.01621,3.27217 -0.74182,1.6869 -2.05273,3.30266 -1.32106,1.6056 -3.40427,2.87585 -2.08322,1.26009 -4.97939,2.05273 -2.90634,0.8028 -6.87969,0.8028 v 0 q -0.39632,0 -1.75803,-0.10162 -1.36171,-0.10162 -3.22136,-0.65037 -1.86981,-0.53859 -3.97335,-1.63609 -2.1137,-1.08733 -3.99368,-3.07909 -1.89013,-1.98159 -3.30265,-5.00987 -1.41252,-3.02829 -1.85965,-7.38779 v 0 l 8.13978,-0.44713 q 0.34551,2.87585 1.26009,4.80663 0.92474,1.94095 2.13402,3.20104 1.21944,1.27025 2.53035,1.96127 1.32106,0.70118 2.47953,1.0162 1.16863,0.32519 1.99175,0.376 0.81297,0.0508 0.9654,0.0508 v 0 q 2.08321,-0.0508 3.80059,-0.72151 1.70722,-0.67069 2.89618,-1.70722 1.18895,-1.04668 1.83932,-2.40839 0.64021,-1.37188 0.64021,-2.80472 v 0 q 0,-1.23977 -0.44713,-2.42873 -0.44713,-1.19911 -1.65641,-2.26613 -1.21944,-1.06701 -3.32298,-1.9511 -2.1137,-0.89426 -5.43668,-1.59544 v 0 q -5.35538,-1.03653 -8.81047,-3.09942 -3.44493,-2.05273 -5.47733,-4.51194 -2.0324,-2.4592 -2.8352,-4.98955 -0.79264,-2.53034 -0.79264,-4.56274 v 0 q 0,-3.02829 1.04669,-6.17851 1.03652,-3.15023 3.39411,-5.75171 2.35759,-2.61164 6.17851,-4.26805 3.82092,-1.66657 9.43036,-1.66657 v 0 q 5.30457,0.34551 9.48116,2.42873 v 0 q 1.77835,0.89425 3.49574,2.25596 1.70722,1.37188 3.0486,3.35347 1.34139,1.9816 2.15435,4.64404 0.82312,2.65229 0.82312,6.1277 v 0 q 0,0.74183 -0.0711,1.55479 -0.0813,0.82313 -0.17275,1.66657 z m 43.26798,0 -8.93242,-0.29469 q 0.0915,-0.44713 0.0915,-0.92475 0,-0.46745 0,-1.0162 v 0 q 0,-2.53034 -0.71134,-4.7355 -0.72151,-2.20516 -2.04257,-3.87173 -1.3109,-1.65641 -3.19087,-2.63197 -1.89014,-0.96539 -4.1766,-0.96539 v 0 q -2.6218,0 -4.75582,0.6707 -2.13403,0.67069 -3.64817,1.96127 -1.51414,1.29057 -2.35759,3.20103 -0.84344,1.91046 -0.84344,4.44081 v 0 q 0,1.43284 0.7215,2.94698 0.71134,1.51414 2.15435,2.85553 1.44301,1.34139 3.54654,2.38807 2.1137,1.03653 4.93875,1.48366 v 0 q 5.30457,0.89426 8.65804,2.60148 3.35346,1.71738 5.26392,3.8514 1.91046,2.13403 2.60148,4.41032 0.69102,2.28645 0.69102,4.26805 v 0 q 0,1.23976 -0.27438,2.8352 -0.26421,1.58528 -1.0162,3.27217 -0.74182,1.6869 -2.05273,3.30266 -1.32106,1.6056 -3.40427,2.87585 -2.08322,1.26009 -4.97939,2.05273 -2.90634,0.8028 -6.87969,0.8028 v 0 q -0.39632,0 -1.75803,-0.10162 -1.36171,-0.10162 -3.22136,-0.65037 -1.86981,-0.53859 -3.97335,-1.63609 -2.1137,-1.08733 -3.99368,-3.07909 -1.89013,-1.98159 -3.30265,-5.00987 -1.41252,-3.02829 -1.85965,-7.38779 v 0 l 8.13978,-0.44713 q 0.34551,2.87585 1.26009,4.80663 0.92474,1.94095 2.13402,3.20104 1.21944,1.27025 2.53034,1.96127 1.32107,0.70118 2.47954,1.0162 1.16863,0.32519 1.99175,0.376 0.81297,0.0508 0.9654,0.0508 v 0 q 2.08321,-0.0508 3.80059,-0.72151 1.70722,-0.67069 2.89618,-1.70722 1.18895,-1.04668 1.83932,-2.40839 0.64021,-1.37188 0.64021,-2.80472 v 0 q 0,-1.23977 -0.44713,-2.42873 -0.44713,-1.19911 -1.65641,-2.26613 -1.21944,-1.06701 -3.32298,-1.9511 -2.1137,-0.89426 -5.43668,-1.59544 v 0 q -5.35538,-1.03653 -8.81047,-3.09942 -3.44493,-2.05273 -5.47733,-4.51194 -2.03241,-2.4592 -2.8352,-4.98955 -0.79264,-2.53034 -0.79264,-4.56274 v 0 q 0,-3.02829 1.04669,-6.17851 1.03652,-3.15023 3.39411,-5.75171 2.35759,-2.61164 6.17851,-4.26805 3.82092,-1.66657 9.43035,-1.66657 v 0 q 5.30458,0.34551 9.48117,2.42873 v 0 q 1.77835,0.89425 3.49574,2.25596 1.70722,1.37188 3.0486,3.35347 1.34139,1.9816 2.15435,4.64404 0.82312,2.65229 0.82312,6.1277 v 0 q 0,0.74183 -0.0711,1.55479 -0.0813,0.82313 -0.17275,1.66657 z m 17.7613,-31.4108 v 0 q 0,1.23976 -0.47761,2.30678 -0.46746,1.06701 -1.26009,1.83932 -0.79264,0.77232 -1.85965,1.21944 -1.06701,0.43697 -2.25597,0.43697 v 0 q -1.19912,0 -2.25597,-0.43697 -1.06701,-0.44712 -1.83933,-1.21944 -0.77231,-0.77231 -1.23976,-1.83932 -0.47762,-1.06702 -0.47762,-2.30678 v 0 q 0,-1.18896 0.47762,-2.25597 0.46745,-1.06701 1.23976,-1.83933 0.77232,-0.76215 1.83933,-1.20928 1.05685,-0.44713 2.25597,-0.44713 v 0 q 1.18896,0 2.25597,0.44713 1.06701,0.44713 1.85965,1.20928 0.79263,0.77232 1.26009,1.83933 0.47761,1.06701 0.47761,2.25597 z m -10.22299,15.57838 8.33286,0.59955 -0.84345,49.57034 h -6.79839 z m 59.84366,21.83818 v 0 q 0,7.1439 -1.66657,12.80414 -1.65641,5.65009 -4.51193,9.59295 -2.85553,3.95303 -6.72726,6.05657 -3.87173,2.1137 -8.23124,2.1137 v 0 q -4.42048,0 -8.29221,-2.18484 -3.87173,-2.18483 -6.74758,-6.20899 -2.87585,-4.014 -4.54242,-9.64376 -1.65641,-5.62976 -1.65641,-12.52977 v 0 q 0,-5.90414 1.46333,-10.79207 1.46333,-4.88793 4.21724,-8.41415 2.7539,-3.51606 6.69677,-5.47733 3.94286,-1.96127 8.86128,-1.96127 v 0 q 5.45701,0 9.42019,1.96127 3.97335,1.96127 6.57483,5.47733 2.61164,3.52622 3.87173,8.41415 1.27025,4.88793 1.27025,10.79207 z m -7.69265,0.10162 v 0 q 0,-4.47129 -0.79263,-8.13978 -0.79264,-3.67865 -2.45921,-6.33094 -1.66657,-2.65229 -4.19692,-4.09529 -2.53034,-1.43285 -5.99559,-1.43285 v 0 q -3.1299,0 -5.63992,1.43285 -2.49986,1.443 -4.23756,4.09529 -1.73771,2.65229 -2.68278,6.33094 -0.9349,3.66849 -0.9349,8.13978 v 0 q 0,5.20295 1.05685,9.42019 1.06701,4.21724 2.88601,7.24552 1.80884,3.02828 4.26805,4.66437 2.44905,1.63609 5.28425,1.63609 v 0 q 2.77423,0 5.23344,-1.58528 2.44905,-1.58527 4.26805,-4.56275 1.80884,-2.97747 2.87585,-7.22519 1.06701,-4.23757 1.06701,-9.59295 z m 53.03948,29.26662 -6.79839,0.40648 q -0.39632,-7.55038 -0.76215,-13.57646 -0.376,-6.02608 -0.67069,-10.29413 v 0 q -0.35568,-4.95906 -0.70118,-8.83079 v 0 q -0.39632,-6.00576 -1.51415,-9.05436 -1.10766,-3.05877 -2.84536,-3.05877 v 0 q -1.73771,0 -3.52622,2.18483 -1.78852,2.18484 -3.52622,5.80252 -1.73771,3.62784 -3.2925,8.26172 -1.56495,4.64404 -2.88601,9.5523 -1.3109,4.91842 -2.2763,9.72505 -0.96539,4.8168 -1.46333,8.68853 v 0 l -6.79839,0.19308 q 0.2947,-8.23124 0.2947,-15.62919 v 0 q 0,-7.7333 -0.24389,-14.16586 -0.25405,-6.42239 -0.54875,-11.08676 v 0 q -0.34551,-5.45701 -0.74182,-9.82668 v 0 l 9.57262,0.39632 v 19.94805 q 1.13815,-3.27217 2.0324,-5.50782 0.89426,-2.23564 1.49382,-3.61767 v 0 q 0.69102,-1.63609 1.13815,-2.58116 v 0 q 1.29057,-2.42872 2.82504,-4.33918 1.54463,-1.91046 3.20103,-3.23152 1.66658,-1.3109 3.3738,-2.01208 1.71738,-0.69102 3.30265,-0.69102 v 0 q 1.58528,0 2.97747,0.69102 1.3922,0.70118 2.45921,2.18483 1.06702,1.49382 1.82917,3.8006 0.77231,2.30678 1.16863,5.52814 v 0 q 0.79264,5.36554 1.3922,11.71681 v 0 q 0.54875,5.457 0.99587,12.74317 0.43697,7.29633 0.53859,15.68 z"
     inkscape:connector-curvature="0"
     style="font-size:100px;font-family:Englebert;letter-spacing:0;text-anchor:middle;fill:#000000;stroke-width:1.01620209" />
  <g
     id="_IgNMwPYraIRTUHe8W--jb"
     transform="matrix(1.1510337,0,0,1.1510337,-95.659277,-108.35599)">
    <path
       id="_W7ObXJ4BSZ9pGU5wXxYoj"
       d="M 81.44,86.337 H 74.555 L 51.302,25.878 53.346,20.321 c 0.313,-0.856 -0.128,-1.807 -0.986,-2.122 -0.851,-0.313 -1.809,0.125 -2.122,0.981 l -0.82,2.23 -0.988,-2.31 c -0.359,-0.837 -1.333,-1.228 -2.17,-0.869 -0.841,0.359 -1.231,1.331 -0.872,2.17 l 2.363,5.524 -23.233,60.41 h -7.724 c -0.915,0 -1.654,0.74 -1.654,1.654 0,0.914 0.739,1.654 1.654,1.654 h 8.862 12.092 27.648 8.022 8.022 c 0.915,0 1.654,-0.74 1.654,-1.654 0,-0.914 -0.739,-1.652 -1.654,-1.652 z m -40.575,0 8.671,-22.548 8.671,22.548 z m -12.803,0 1.947,-5.061 h 2.927 c 0.684,0 1.239,-0.554 1.239,-1.238 0,-0.687 -0.556,-1.24 -1.239,-1.24 h -1.974 l 0.642,-1.675 h 4.064 c 0.685,0 1.239,-0.557 1.239,-1.242 0,-0.684 -0.555,-1.238 -1.239,-1.238 H 32.56 L 48.381,33.507 V 60.343 L 38.38,86.337 h -0.633 z m 37.334,0 H 60.693 L 50.691,60.343 V 33.507 l 20.319,52.83 z"
       transform="matrix(1.8038442,0,0,1.8038442,203.67351,121.39548)"
       inkscape:connector-curvature="0"
       style="fill:#000000" />
    <path
       id="_mtrrfKQOt4C6tASPHFx_r"
       d="m 49.001,22.768 c -1.641,0 -2.97,-1.329 -2.97,-2.97 V 2.97 c 0,-1.64 1.329,-2.97 2.97,-2.97 1.64,0 2.969,1.33 2.969,2.97 v 16.829 c 0,1.64 -1.329,2.969 -2.969,2.969 z"
       transform="matrix(0.91490978,0,0,0.91490978,355.50156,94.137978)"
       inkscape:connector-curvature="0"
       style="fill:#000000" />
    <path
       id="_YCWn-DGgPy-EBZOCAs6xH"
       d="m 49.001,98 c -1.641,0 -2.97,-1.329 -2.97,-2.97 V 78.203 c 0,-1.64 1.329,-2.97 2.97,-2.97 1.64,0 2.969,1.33 2.969,2.97 v 16.828 c 0,1.64 -1.329,2.969 -2.969,2.969 z"
       transform="matrix(0.91490978,0,0,0.91490978,355.50156,93.923721)"
       inkscape:connector-curvature="0"
       style="fill:#000000" />
    <path
       id="_xiOEINHfOh5V-n2289ooQ"
       d="M 95.032,51.968 H 78.203 c -1.64,0 -2.97,-1.328 -2.97,-2.969 0,-1.64 1.33,-2.97 2.97,-2.97 h 16.829 c 1.64,0 2.97,1.33 2.97,2.97 -10e-4,1.641 -1.331,2.969 -2.97,2.969 z"
       transform="matrix(0.91490978,0,0,0.91490978,354.85858,93.65345)"
       inkscape:connector-curvature="0"
       style="fill:#000000" />
    <path
       id="_8wwx5EkmPpGsBRCjo-6rm"
       d="M 19.798,51.968 H 2.969 C 1.329,51.968 0,50.64 0,49 0,47.36 1.329,46.03 2.969,46.03 h 16.829 c 1.64,0 2.97,1.33 2.97,2.97 0,1.64 -1.33,2.968 -2.97,2.968 z"
       transform="matrix(0.91490978,0,0,0.91490978,355.07358,93.652534)"
       inkscape:connector-curvature="0"
       style="fill:#000000" />
    <path
       id="_RTlekEmWEvbfrQ0_IfGP0"
       d="m 81.549,84.519 c -0.76,0 -1.52,-0.29 -2.1,-0.87 L 67.55,71.75 c -1.16,-1.16 -1.16,-3.039 0,-4.198 1.159,-1.16 3.039,-1.16 4.199,0 l 11.9,11.898 c 1.16,1.16 1.16,3.04 0,4.199 -0.579,0.58 -1.34,0.87 -2.1,0.87 z"
       transform="matrix(0.91490978,0,0,0.91490978,354.90744,93.970558)"
       inkscape:connector-curvature="0"
       style="fill:#000000" />
    <path
       id="_bs0uH4XzALQNltfFftFK9"
       d="m 28.353,31.321 c -0.759,0 -1.519,-0.29 -2.099,-0.87 l -11.9,-11.899 c -1.16,-1.159 -1.16,-3.039 0,-4.199 1.16,-1.16 3.04,-1.16 4.2,0 l 11.9,11.899 c 1.16,1.159 1.16,3.04 0,4.2 -0.581,0.579 -1.341,0.869 -2.101,0.869 z"
       transform="matrix(0.91490978,0,0,0.91490978,355.08786,94.153351)"
       inkscape:connector-curvature="0"
       style="fill:#000000" />
    <path
       id="_u8FEJi1HVyWa68ZplAy2B"
       d="m 16.454,84.521 c -0.76,0 -1.52,-0.29 -2.1,-0.87 -1.16,-1.159 -1.16,-3.039 0,-4.199 L 26.253,67.553 c 1.16,-1.16 3.039,-1.16 4.199,0 1.16,1.159 1.16,3.038 0,4.198 l -11.899,11.9 c -0.578,0.58 -1.339,0.87 -2.099,0.87 z"
       transform="matrix(0.91490978,0,0,0.91490978,355.08786,93.96965)"
       inkscape:connector-curvature="0"
       style="fill:#000000" />
    <path
       id="_DelgUmeOU2oXaYv7BxCKe"
       d="m 69.652,31.324 c -0.76,0 -1.521,-0.29 -2.1,-0.87 -1.16,-1.159 -1.16,-3.041 0,-4.2 l 11.899,-11.9 c 1.16,-1.161 3.04,-1.161 4.199,0 1.16,1.159 1.16,3.04 0,4.199 l -11.899,11.9 c -0.58,0.581 -1.339,0.871 -2.099,0.871 z"
       transform="matrix(0.91490978,0,0,0.91490978,354.90561,94.153122)"
       inkscape:connector-curvature="0"
       style="fill:#000000" />
    <path
       id="_hUKQYueFe6UXkX0SdyEgE"
       d="M 49.001,68.362 C 38.326,68.362 29.64,59.676 29.64,49 c 0,-10.675 8.686,-19.361 19.361,-19.361 10.676,0 19.361,8.686 19.361,19.361 0,10.676 -8.685,19.362 -19.361,19.362 z m 0,-32.783 c -7.401,0 -13.422,6.02 -13.422,13.421 0,7.4 6.021,13.422 13.422,13.422 7.401,0 13.421,-6.021 13.421,-13.422 0,-7.401 -6.02,-13.421 -13.421,-13.421 z"
       transform="matrix(0.91490978,0,0,0.91490978,355.40204,94.467903)"
       inkscape:connector-curvature="0"
       style="fill:#000000" />
    <path
       id="_09NgMxOIl4MLCCHelL8E_"
       d="M 73.138,70.965 H 27.361 c -0.576,0 -1.112,-0.294 -1.422,-0.779 -0.31,-0.485 -0.351,-1.096 -0.108,-1.618 L 49.113,18.359 c 0.276,-0.596 0.874,-0.978 1.531,-0.978 0.003,0 0.007,0 0.011,0 0.661,0.004 1.259,0.394 1.529,0.998 l 22.495,50.209 c 0.234,0.522 0.188,1.127 -0.124,1.607 -0.311,0.48 -0.845,0.77 -1.417,0.77 z M 30.003,67.59 h 40.53 L 50.617,23.137 Z"
       transform="matrix(1.8038442,0,0,1.8038442,87.264465,126.29583)"
       inkscape:connector-curvature="0"
       style="fill:#000000" />
    <path
       id="_8hQOo6fyCyW9BbK2Qq7cC"
       d="m 50.284,86.041 c -0.865,0 -1.566,-0.701 -1.566,-1.566 V 39.808 c 0,-0.865 0.701,-1.566 1.566,-1.566 0.865,0 1.566,0.701 1.566,1.566 v 44.667 c 0,0.864 -0.702,1.566 -1.566,1.566 z"
       transform="matrix(1.8038442,0,0,1.8038442,87.184853,126.54657)"
       inkscape:connector-curvature="0"
       style="fill:#000000" />
    <path
       id="_7v2tDBv7vSKClTboehG8W"
       d="m 50.272,67.604 c -0.5,0 -0.996,-0.222 -1.329,-0.646 -0.575,-0.733 -0.447,-1.794 0.286,-2.369 l 9.643,-7.566 c 0.732,-0.575 1.793,-0.447 2.369,0.286 0.575,0.733 0.447,1.794 -0.286,2.369 l -9.643,7.566 c -0.308,0.242 -0.675,0.36 -1.04,0.36 z m -0.486,-4.398 c -0.43,0 -0.86,-0.164 -1.19,-0.491 L 39.629,53.8 c -0.661,-0.657 -0.664,-1.726 -0.007,-2.387 0.658,-0.661 1.725,-0.664 2.387,-0.007 l 8.967,8.915 c 0.661,0.657 0.664,1.726 0.007,2.387 -0.33,0.332 -0.763,0.498 -1.197,0.498 z m 0.485,-6.218 c -0.434,0 -0.867,-0.166 -1.196,-0.498 -0.657,-0.661 -0.654,-1.729 0.006,-2.386 l 8.286,-8.241 c 0.661,-0.658 1.73,-0.654 2.386,0.006 0.657,0.661 0.654,1.729 -0.006,2.386 l -8.286,8.241 c -0.329,0.329 -0.759,0.492 -1.19,0.492 z m -0.372,-5.976 c -0.565,0 -1.118,-0.284 -1.438,-0.801 l -5.129,-8.306 c -0.49,-0.793 -0.244,-1.833 0.549,-2.322 0.792,-0.49 1.833,-0.244 2.323,0.549 l 5.129,8.306 c 0.49,0.793 0.244,1.833 -0.549,2.322 -0.276,0.171 -0.582,0.252 -0.885,0.252 z"
       transform="matrix(1.8038442,0,0,1.8038442,87.341354,125.48434)"
       inkscape:connector-curvature="0"
       style="fill:#000000" />
    <path
       id="_y8-tZ3ixPD2D-qgxeWBTI"
       d="m 50.284,86.041 c -0.865,0 -1.566,-0.701 -1.566,-1.566 V 39.808 c 0,-0.865 0.701,-1.566 1.566,-1.566 0.865,0 1.566,0.701 1.566,1.566 v 44.667 c 0,0.864 -0.702,1.566 -1.566,1.566 z"
       transform="matrix(0,1.8038442,-5.0799861,0,568.98462,188.82248)"
       inkscape:connector-curvature="0"
       style="fill:#000000" />
  </g>
</svg>
